<svg version="1.0" xmlns="http://www.w3.org/2000/svg"
 width="512.000000pt" height="512.000000pt" viewBox="0 0 512.000000 512.000000"
 preserveAspectRatio="xMidYMid meet">

<g fill="#1095C1" transform="translate(0.000000,512.000000) scale(0.100000,-0.100000)" stroke="none">
<path d="M2865 5106 c-141 -33 -229 -80 -324 -175 -106 -105 -175 -226 -212
-371 -19 -76 -17 -275 3 -370 9 -41 20 -101 23 -132 l7 -56 -48 -7 c-279 -39
-543 -135 -753 -275 -102 -68 -251 -205 -307 -281 -25 -34 -40 -47 -48 -40
-27 23 -175 72 -259 88 -108 19 -146 14 -209 -26 -53 -34 -99 -115 -119 -209
-19 -92 -6 -378 25 -548 23 -126 90 -408 113 -474 8 -21 -2 -48 -57 -155 l-65
-130 -55 7 c-73 8 -254 10 -275 2 -25 -10 -47 -62 -40 -94 12 -55 34 -63 176
-71 72 -4 133 -9 135 -12 3 -2 0 -17 -6 -33 -18 -45 -50 -251 -50 -316 0 -58
-1 -59 -32 -70 -18 -7 -72 -31 -119 -54 -86 -44 -109 -68 -109 -115 0 -26 52
-79 78 -79 12 0 58 18 103 40 88 42 98 41 99 -10 1 -14 18 -74 38 -135 l37
-109 -86 -86 c-61 -61 -94 -103 -117 -151 -122 -253 -61 -454 173 -570 124
-62 241 -82 460 -83 210 0 277 14 433 90 l94 45 116 -30 c299 -77 532 -105
877 -105 345 0 578 28 877 105 l116 30 94 -45 c156 -76 223 -90 433 -90 218 1
331 21 458 82 235 115 297 317 175 571 -23 48 -56 90 -118 152 l-87 87 20 48
c10 27 30 91 43 143 13 52 26 96 28 98 2 3 40 -14 85 -36 44 -23 90 -41 102
-41 26 0 79 52 79 79 0 47 -23 71 -109 115 -47 23 -101 47 -118 54 -32 11 -33
12 -33 70 0 65 -32 271 -50 316 -6 16 -9 31 -6 33 2 3 63 8 135 12 142 8 164
16 176 71 7 32 -15 84 -40 94 -21 8 -202 6 -275 -2 l-55 -7 -64 129 -63 129
36 131 c154 564 163 960 22 1101 -58 58 -113 72 -217 56 -84 -13 -189 -45
-256 -79 l-42 -22 -35 49 c-57 77 -208 215 -309 281 -171 114 -397 208 -599
248 l-93 19 -11 109 c-7 60 -19 147 -29 194 -19 94 -15 150 14 208 26 52 82
99 126 108 62 11 169 -27 273 -98 64 -44 110 -60 173 -60 190 0 308 195 224
368 -21 43 -43 67 -94 105 -85 63 -245 143 -341 169 -97 27 -264 35 -345 16z
m334 -192 c87 -29 225 -105 274 -151 33 -33 36 -79 6 -117 -30 -38 -81 -36
-140 7 -68 48 -196 105 -264 118 -157 29 -290 -36 -369 -180 -59 -109 -67
-187 -37 -346 11 -55 23 -130 26 -167 l7 -68 -85 0 -85 0 -6 58 c-4 31 -16
107 -28 167 -36 195 -9 345 88 488 140 205 362 274 613 191z m-406 -1089 c385
-50 721 -219 928 -466 l39 -47 -73 -43 c-39 -23 -125 -78 -190 -121 l-118 -79
-72 29 c-252 104 -508 148 -807 139 -244 -7 -451 -49 -661 -133 l-87 -34 -93
63 c-52 35 -138 90 -191 122 l-97 58 29 36 c77 97 198 197 330 275 293 174
694 249 1063 201z m-1836 -515 c46 -11 111 -32 145 -48 96 -44 313 -171 472
-277 88 -59 152 -95 168 -95 14 0 59 14 99 31 259 111 496 155 779 146 247 -8
411 -42 635 -133 61 -24 123 -44 139 -44 18 0 64 25 134 74 356 245 690 400
771 357 51 -28 71 -240 42 -461 -19 -140 -67 -363 -108 -503 -53 -181 -53
-179 6 -283 27 -49 57 -105 65 -125 l15 -35 -116 -34 c-133 -38 -353 -143
-407 -193 -38 -36 -44 -63 -24 -100 32 -61 74 -61 184 2 137 79 405 176 425
154 17 -20 70 -316 58 -328 -2 -2 -47 3 -99 11 -119 17 -319 29 -353 20 -28
-7 -57 -51 -57 -86 0 -12 12 -34 28 -49 26 -26 34 -28 147 -34 119 -7 313 -32
324 -42 7 -8 -16 -117 -42 -193 -23 -71 -13 -68 -122 -38 -78 22 -248 23 -330
1 -298 -77 -534 -356 -512 -604 4 -36 9 -78 12 -92 7 -25 5 -26 -112 -52 -274
-63 -446 -81 -758 -81 -312 0 -484 18 -758 81 -117 26 -119 27 -112 52 3 14 8
56 12 92 22 251 -210 524 -512 604 -81 22 -251 21 -330 -1 -106 -29 -99 -31
-117 23 -22 63 -48 166 -48 190 0 17 11 22 68 31 100 18 239 32 310 32 57 0
67 3 93 29 16 16 29 39 29 51 0 35 -29 79 -57 86 -34 9 -234 -3 -353 -20 -52
-8 -97 -13 -99 -11 -12 12 41 308 58 328 20 22 288 -75 425 -154 110 -63 152
-63 184 -2 33 61 -2 102 -155 180 -118 61 -242 109 -340 133 l-52 12 15 36 c8
21 37 76 64 124 28 49 50 100 50 115 0 16 -18 91 -41 168 -45 158 -92 382
-110 527 -16 138 -8 353 15 398 31 58 34 59 153 30z m214 -2476 c218 -64 396
-281 365 -447 -13 -69 -122 -156 -226 -180 l-25 -6 0 129 c0 122 -1 130 -24
154 -34 36 -88 36 -122 0 -21 -23 -24 -35 -27 -132 -4 -141 -6 -150 -47 -169
-29 -14 -38 -14 -66 -3 -46 19 -59 60 -59 182 0 91 -2 104 -22 125 -31 33 -87
31 -119 -3 -23 -24 -24 -32 -24 -154 l0 -129 -25 6 c-106 24 -212 108 -226
178 -18 97 26 206 120 301 112 112 232 163 382 164 54 0 112 -6 145 -16z
m3070 0 c183 -54 350 -222 366 -369 8 -70 -4 -113 -48 -160 -36 -39 -118 -84
-179 -98 l-25 -6 0 129 c0 122 -1 130 -24 154 -31 33 -85 35 -118 4 -21 -20
-23 -30 -23 -125 0 -123 -13 -164 -59 -183 -28 -11 -37 -11 -66 3 -41 19 -43
28 -47 169 -3 97 -6 109 -27 132 -34 36 -88 36 -122 0 -23 -24 -24 -32 -24
-154 l1 -129 -26 6 c-59 13 -151 65 -184 105 -57 66 -60 149 -10 251 54 113
180 219 311 263 84 29 221 32 304 8z"/>
<path d="M1541 2109 c-96 -25 -142 -48 -160 -80 -27 -48 14 -119 69 -119 15 0
53 9 86 21 33 12 97 23 146 26 146 9 218 -31 275 -154 18 -40 42 -77 53 -83
34 -18 70 -11 102 20 37 37 35 67 -8 155 -54 109 -144 187 -253 219 -75 22
-217 20 -310 -5z"/>
<path d="M3193 2115 c-137 -42 -267 -186 -281 -310 -4 -37 -1 -47 21 -69 50
-50 121 -24 147 54 18 54 84 128 135 151 56 26 170 25 260 -2 114 -34 140 -35
169 -5 26 25 33 65 20 101 -9 23 -69 51 -160 75 -91 23 -245 26 -311 5z"/>
<path d="M2345 1606 c-89 -43 -135 -129 -113 -214 8 -34 30 -65 91 -131 45
-47 98 -97 118 -111 l38 -25 1 -150 c0 -137 -2 -155 -22 -195 -13 -24 -35 -52
-49 -63 -55 -40 -144 -40 -198 0 -53 40 -64 67 -71 169 -6 85 -9 99 -29 115
-38 31 -87 28 -118 -7 -20 -22 -23 -36 -23 -114 0 -114 25 -185 89 -253 129
-138 334 -150 474 -27 l34 29 22 -23 c33 -35 109 -73 173 -86 109 -22 227 19
309 107 64 68 89 139 89 253 0 78 -3 92 -22 114 -32 35 -81 38 -119 7 -20 -16
-23 -30 -29 -115 -7 -102 -18 -129 -71 -169 -54 -40 -143 -40 -198 0 -14 11
-36 39 -48 63 -21 40 -23 58 -23 195 l1 150 38 25 c20 14 73 64 118 111 61 66
83 97 91 131 19 73 -13 148 -82 196 -39 27 -39 27 -240 29 -157 2 -208 0 -231
-11z m381 -167 c9 -15 -137 -159 -161 -159 -24 0 -170 144 -161 159 5 7 56 11
161 11 105 0 156 -4 161 -11z"/>
</g>
</svg>
